# xmcd
#
# Track frame offsets:
#	150
#	12346
#	36421
#	54749
#	68978
#	81614
#	93932
#	107673
#	121904
#	132838
#	144139
#
# Disc length: 2086 seconds
#
# Revision: 1
# Processed by: cddbd v1.5.2PL0 Copyright (c) Steve Scherf et al.
# Submitted via: audiograbber 1.83.01
#
DISCID=9608240b
DTITLE=Various Artist - Country Number One Hits Disc 2
DYEAR=2014
DGENRE=Country
TTITLE0=Johnny Paycheck - Take This Job and Shove It
TTITLE1=Restless Heart - The Bluest Eyes In Texas (Live)
TTITLE2=Juice Newton - The Sweetest Thing
TTITLE3=Exile - Woke Up In Love
TTITLE4=T.G. Sheppard - Devil In The Bottle
TTITLE5=Faron Young - It's Four In The Morning
TTITLE6=Moe Bandy - I Cheated Me Right Out Of You
TTITLE7=T. Graham Brown - Darlene
TTITLE8=Janie Frickie - Don't Worry 'Bout Me Baby
TTITLE9=Feddy Fender - Before The Next Teardrop Falls (Live)
TTITLE10=T.G. Sheppard - Tryin' To Beat The Morning Home
EXTD=
EXTT0=
EXTT1=
EXTT2=
EXTT3=
EXTT4=
EXTT5=
EXTT6=
EXTT7=
EXTT8=
EXTT9=
EXTT10=
PLAYORDER=
